<svg width="297" height="101" viewBox="0 0 297 101" fill="none" xmlns="http://www.w3.org/2000/svg">
<path d="M125.86 62.8489C126.088 63.077 126.253 63.4191 126.357 63.8752C126.482 64.3106 126.502 64.7979 126.419 65.337C126.357 65.7931 126.202 66.2597 125.953 66.7365C125.704 67.2134 125.331 67.6281 124.833 67.9806C124.439 68.2501 124.149 68.6959 123.962 69.318C123.776 69.9193 123.651 70.5309 123.589 71.1529C123.506 71.8579 123.32 72.5836 123.029 73.33C122.76 74.0765 122.335 74.74 121.754 75.3205C121.298 75.8596 120.634 76.3572 119.764 76.8134C118.914 77.2488 117.752 77.4562 116.28 77.4354C115.451 77.4147 114.476 77.2695 113.357 77C112.258 76.7305 111.138 76.295 109.998 75.6937C108.878 75.0717 107.852 74.2423 106.919 73.2056C105.986 72.1689 105.27 70.8834 104.773 69.3491C104.275 67.8147 104.13 65.9901 104.337 63.8752C104.524 61.864 105.022 60.1223 105.83 58.6502C106.66 57.1781 107.686 55.9651 108.909 55.0113C110.133 54.0576 111.449 53.3422 112.859 52.8653C114.269 52.3677 115.669 52.1085 117.058 52.0878C118.281 52.0463 119.349 52.2329 120.261 52.6476C121.174 53.0623 121.899 53.6014 122.438 54.2649C122.998 54.9077 123.371 55.6023 123.558 56.3487C123.765 57.0744 123.765 57.7379 123.558 58.3392C123.392 58.8575 123.154 59.2826 122.843 59.6143C122.552 59.9461 122.231 60.1742 121.879 60.2986C121.443 60.4644 120.997 60.4955 120.541 60.3919C120.085 60.2675 119.691 60.0083 119.359 59.6143C119.712 59.3448 119.815 59.0545 119.67 58.7435C119.546 58.4117 119.225 58.1422 118.706 57.9349C118.188 57.7068 117.524 57.6238 116.716 57.686C116.094 57.7275 115.43 57.9038 114.725 58.2148C114.041 58.5258 113.388 58.9612 112.766 59.521C112.165 60.0809 111.667 60.7651 111.273 61.5737C110.879 62.3824 110.661 63.305 110.62 64.3417C110.558 65.7724 110.682 66.9335 110.993 67.8251C111.325 68.7167 111.76 69.3905 112.299 69.8467C112.838 70.3028 113.419 70.6139 114.041 70.7797C114.663 70.9456 115.264 71.0285 115.845 71.0285C116.342 71.0285 116.747 70.873 117.058 70.562C117.39 70.251 117.524 69.8778 117.462 69.4424C117.4 69.0069 117.027 68.5923 116.342 68.1983C115.7 67.8458 115.285 67.5037 115.098 67.172C114.912 66.8402 114.756 66.5085 114.632 66.1767C114.425 65.6376 114.248 65.0571 114.103 64.435C113.958 63.813 113.896 63.2843 113.917 62.8489C114.082 62.9111 114.508 63.0147 115.192 63.1599C115.876 63.2843 116.664 63.3983 117.555 63.502C118.468 63.6057 119.328 63.6679 120.137 63.6886C120.987 63.6886 121.806 63.6679 122.594 63.6264C123.382 63.5642 124.066 63.4709 124.647 63.3465C125.248 63.2221 125.652 63.0562 125.86 62.8489ZM146.105 71.3707C146.126 71.8268 146.157 72.3866 146.198 73.0501C146.26 73.7136 146.395 74.3564 146.602 74.9784C146.81 75.6004 147.142 76.0981 147.598 76.4713C147.079 76.8238 146.551 77.0726 146.011 77.2177C145.472 77.3836 144.944 77.4251 144.425 77.3421C144.28 77.3006 144.125 77.2488 143.959 77.1866C143.793 77.1451 143.565 77.0829 143.275 77C142.798 76.8549 142.238 76.8238 141.595 76.9067C140.952 76.9896 140.278 77.0933 139.574 77.2177C138.889 77.3628 138.215 77.4354 137.552 77.4354C136.474 77.4354 135.396 77.2488 134.317 76.8756C133.239 76.4816 132.265 75.8804 131.394 75.0717C130.523 74.2631 129.86 73.2367 129.403 71.9927C128.947 70.7486 128.812 69.2558 128.999 67.5141C129.123 66.3115 129.466 65.2126 130.025 64.2173C130.585 63.2014 131.269 62.3305 132.078 61.6048C132.907 60.8584 133.778 60.2882 134.691 59.8942C135.624 59.4796 136.526 59.2826 137.396 59.3033C138.06 59.3241 138.568 59.3448 138.92 59.3655C139.294 59.3863 139.77 59.4381 140.351 59.521C140.704 59.5625 141.149 59.5107 141.688 59.3655C142.227 59.2204 142.767 59.0649 143.306 58.899C143.866 58.7124 144.342 58.6191 144.736 58.6191C145.338 58.5984 145.763 58.6191 146.011 58.6813C146.26 58.7228 146.468 58.7642 146.634 58.8057C146.509 59.1789 146.405 59.7387 146.323 60.4852C146.24 61.2316 146.177 62.0817 146.136 63.0355C146.115 63.9685 146.094 64.943 146.074 65.959C146.053 66.975 146.043 67.9495 146.043 68.8825C146.063 69.8156 146.084 70.645 146.105 71.3707ZM134.411 68.5093C134.452 69.546 134.639 70.3547 134.971 70.9352C135.323 71.4951 135.738 71.889 136.215 72.1171C136.712 72.3452 137.189 72.4592 137.645 72.4592C138.558 72.4799 139.231 72.1275 139.667 71.4018C140.102 70.6761 140.31 69.6704 140.289 68.3849C140.289 68.0324 140.247 67.6178 140.164 67.1409C140.102 66.664 139.978 66.1975 139.791 65.7413C139.625 65.2851 139.387 64.9016 139.076 64.5906C138.786 64.2795 138.402 64.124 137.925 64.124C136.971 64.124 136.132 64.4765 135.406 65.1815C134.701 65.8864 134.369 66.9957 134.411 68.5093ZM172.687 73.0501C172.707 73.2989 172.77 73.61 172.873 73.9832C172.998 74.3356 173.112 74.657 173.215 74.9473C173.34 75.2376 173.402 75.3827 173.402 75.3827C173.298 75.5071 173.081 75.7352 172.749 76.067C172.417 76.3987 171.992 76.6994 171.474 76.9689C170.976 77.2177 170.406 77.2903 169.763 77.1866C168.623 76.9793 167.845 76.5024 167.431 75.7559C167.037 75.0095 166.829 74.1594 166.809 73.2056C166.809 73.0398 166.819 72.7184 166.84 72.2415C166.86 71.7646 166.871 71.2359 166.871 70.6553C166.892 70.054 166.892 69.4942 166.871 68.9758C166.871 68.4368 166.829 68.0428 166.746 67.794C166.622 67.3171 166.435 67.0268 166.187 66.9232C165.938 66.8195 165.679 66.8402 165.409 66.9854C165.139 67.1098 164.911 67.3171 164.725 67.6074C164.538 67.8977 164.445 68.2087 164.445 68.5404C164.424 69.0588 164.414 69.5046 164.414 69.8778C164.414 70.251 164.424 70.7383 164.445 71.3395C164.445 71.4847 164.466 71.7542 164.507 72.1482C164.549 72.5421 164.6 72.9879 164.663 73.4855C164.725 73.9832 164.787 74.4704 164.849 74.9473C164.932 75.4035 165.015 75.7767 165.098 76.067C164.58 76.4402 163.968 76.7512 163.263 77C162.579 77.2488 161.698 77.2488 160.619 77C160.06 76.8756 159.645 76.6164 159.375 76.2225C159.106 75.8285 158.919 75.3724 158.816 74.854C158.733 74.3149 158.691 73.7655 158.691 73.2056C158.691 72.6458 158.691 72.1275 158.691 71.6506C158.691 71.4225 158.702 71.0596 158.722 70.562C158.764 70.0644 158.784 69.546 158.784 69.0069C158.784 68.4471 158.733 68.0013 158.629 67.6696C158.546 67.4 158.411 67.2342 158.225 67.172C158.059 67.089 157.914 67.0579 157.789 67.0787C157.457 67.0994 157.167 67.1927 156.918 67.3586C156.69 67.5244 156.535 67.8666 156.452 68.3849C156.41 68.6337 156.379 69.0484 156.359 69.629C156.359 70.1888 156.359 70.7901 156.359 71.4329C156.359 72.0549 156.359 72.6043 156.359 73.0812C156.379 73.5581 156.4 73.838 156.421 73.921C156.483 74.2112 156.607 74.429 156.794 74.5741C156.981 74.6985 157.074 74.7607 157.074 74.7607C157.074 74.7607 156.96 74.8955 156.732 75.165C156.524 75.4138 156.234 75.7041 155.861 76.0359C155.488 76.3676 155.052 76.6579 154.555 76.9067C154.057 77.1348 153.518 77.2177 152.937 77.1555C152.378 77.114 151.849 76.8238 151.351 76.2847C150.874 75.7456 150.626 74.9991 150.605 74.0454L150.511 62.1024C150.491 61.356 150.408 60.7443 150.263 60.2675C150.138 59.7906 150.076 59.5521 150.076 59.5521C150.283 59.5107 150.657 59.4796 151.196 59.4588C151.735 59.4381 152.336 59.4588 153 59.521C153.663 59.5625 154.264 59.7076 154.803 59.9564C155.135 60.1016 155.508 60.1638 155.923 60.1431C156.359 60.1016 156.732 59.9875 157.043 59.8009C157.395 59.6143 157.748 59.4485 158.1 59.3033C158.473 59.1582 158.847 59.0649 159.22 59.0234C159.655 58.9819 160.184 59.0234 160.806 59.1478C161.428 59.2722 162.071 59.5003 162.734 59.832C163.149 60.0394 163.636 60.1845 164.196 60.2675C164.756 60.3504 165.139 60.3193 165.347 60.1742C165.762 59.8839 166.197 59.6351 166.653 59.4277C167.13 59.2204 167.607 59.0856 168.084 59.0234C168.436 58.9819 168.851 59.0027 169.328 59.0856C169.825 59.1478 170.302 59.3033 170.758 59.5521C171.235 59.8009 171.64 60.1534 171.971 60.6096C172.324 61.0657 172.542 61.6463 172.625 62.3513C172.687 62.9525 172.718 63.7404 172.718 64.715C172.739 65.6687 172.739 66.6847 172.718 67.7629C172.697 68.8203 172.676 69.8259 172.656 70.7797C172.656 71.7128 172.666 72.4696 172.687 73.0501ZM191.568 69.1936C192.086 69.546 192.418 70.054 192.563 70.7175C192.729 71.3603 192.708 72.0652 192.501 72.8324C192.314 73.5996 191.931 74.3356 191.35 75.0406C190.769 75.7248 189.982 76.295 188.986 76.7512C188.012 77.2073 186.83 77.4458 185.441 77.4665C184.28 77.4873 183.139 77.3421 182.02 77.0311C180.921 76.7201 179.915 76.2432 179.003 75.6004C178.111 74.9577 177.385 74.1283 176.826 73.1123C176.266 72.0963 175.955 70.8834 175.893 69.4735C175.872 69.1832 175.872 68.8825 175.893 68.5715C175.913 68.2605 175.934 67.9391 175.955 67.6074C175.955 67.5244 175.955 67.4415 175.955 67.3586C175.976 67.2756 175.996 67.1927 176.017 67.1098C176.224 65.8657 176.649 64.7253 177.292 63.6886C177.956 62.6519 178.764 61.7707 179.718 61.045C180.672 60.3193 181.688 59.7906 182.766 59.4588C183.865 59.1063 184.943 58.9819 186.001 59.0856C187.639 59.2515 188.903 59.6869 189.795 60.3919C190.707 61.0968 191.298 61.9677 191.568 63.0044C191.858 64.0204 191.868 65.1193 191.599 66.3011C191.454 66.8817 191.122 67.4622 190.604 68.0428C190.106 68.6026 189.484 69.1106 188.737 69.5668C187.991 70.0022 187.193 70.3443 186.343 70.5931C185.513 70.8212 184.705 70.9145 183.917 70.873C183.523 70.8523 183.315 70.9767 183.295 71.2462C183.274 71.4951 183.388 71.775 183.637 72.086C183.886 72.3763 184.217 72.5732 184.632 72.6769C185.607 72.8843 186.519 72.8946 187.369 72.708C188.24 72.5007 188.903 72.2208 189.36 71.8683C189.733 71.578 190.127 71.1944 190.541 70.7175C190.956 70.2199 191.298 69.7119 191.568 69.1936ZM184.757 66.0523C185.233 66.0108 185.648 65.8657 186.001 65.6169C186.374 65.3474 186.56 65.0674 186.56 64.7772C186.581 64.3625 186.477 64.0307 186.249 63.7819C186.042 63.5124 185.679 63.388 185.161 63.4087C184.58 63.4294 184.02 63.5124 183.481 63.6575C182.942 63.8026 182.621 64.1033 182.517 64.5595C182.455 64.8705 182.548 65.14 182.797 65.3681C183.046 65.5962 183.357 65.7724 183.73 65.8968C184.103 66.0005 184.446 66.0523 184.757 66.0523ZM215.115 51.9634C215.364 52.1707 215.54 52.5751 215.644 53.1763C215.768 53.7776 215.82 54.4308 215.799 55.1357C215.779 55.82 215.675 56.442 215.488 57.0018C215.302 57.5409 215.032 57.8623 214.68 57.966C214.535 58.0074 214.234 58.0696 213.778 58.1526C213.342 58.2148 212.938 58.2977 212.565 58.4014C212.212 58.505 211.746 58.6813 211.165 58.9301C210.585 59.1789 210.087 59.5418 209.672 60.0186C209.341 60.4126 209.071 60.8273 208.864 61.2627C208.656 61.6774 208.542 62.2165 208.522 62.88C208.501 63.1495 208.491 63.6575 208.491 64.4039C208.491 65.1296 208.491 65.9797 208.491 66.9543C208.491 67.908 208.491 68.8514 208.491 69.7845C208.511 70.7175 208.522 71.5158 208.522 72.1793C208.522 72.8428 208.522 73.2367 208.522 73.3611C208.501 73.9832 208.563 74.5119 208.708 74.9473C208.853 75.3827 209.009 75.6419 209.175 75.7248C208.656 76.1188 208.138 76.4505 207.62 76.7201C207.122 76.9896 206.407 77.1866 205.474 77.311C205.121 77.3525 204.727 77.2488 204.292 77C203.856 76.7719 203.473 76.4091 203.141 75.9115C202.83 75.3931 202.664 74.7607 202.643 74.0143C202.643 73.2678 202.633 72.3141 202.612 71.1529C202.612 69.9711 202.612 68.6959 202.612 67.3275C202.633 65.9383 202.633 64.5491 202.612 63.1599C202.592 62.5586 202.498 61.9884 202.332 61.4493C202.187 60.9102 201.938 60.4437 201.586 60.0498C201.234 59.6351 200.767 59.293 200.186 59.0234C199.606 58.7539 198.88 58.5776 198.009 58.4947C197.781 58.4739 197.47 58.4117 197.076 58.3081C196.682 58.2044 196.413 58.1007 196.268 57.9971C196.04 57.8312 195.853 57.5202 195.708 57.064C195.563 56.5871 195.449 56.0688 195.366 55.5089C195.283 54.9284 195.221 54.3582 195.179 53.7984C195.158 53.2385 195.158 52.7824 195.179 52.4299C195.262 52.4506 195.49 52.4817 195.863 52.5232C196.257 52.5647 196.724 52.6062 197.263 52.6476C197.802 52.6684 198.331 52.6891 198.849 52.7098C199.222 52.7306 199.72 52.7513 200.342 52.772C200.985 52.7928 201.669 52.8135 202.395 52.8342C203.12 52.855 203.805 52.8757 204.447 52.8964C205.09 52.8964 205.619 52.8964 206.034 52.8964C206.593 52.8757 207.246 52.855 207.993 52.8342C208.739 52.8135 209.455 52.7928 210.139 52.772C210.844 52.7306 211.404 52.6891 211.818 52.6476C212.233 52.6062 212.668 52.5543 213.125 52.4921C213.602 52.4092 214.016 52.3262 214.369 52.2433C214.742 52.1396 214.991 52.0463 215.115 51.9634ZM231.787 67.5141C231.974 69.2558 231.839 70.7486 231.383 71.9927C230.926 73.2367 230.253 74.2631 229.361 75.0717C228.49 75.8804 227.505 76.4816 226.406 76.8756C225.328 77.2488 224.25 77.4354 223.172 77.4354C222.114 77.4354 221.036 77.2488 219.937 76.8756C218.859 76.4816 217.885 75.8804 217.014 75.0717C216.164 74.2631 215.5 73.2367 215.023 71.9927C214.567 70.7486 214.432 69.2558 214.619 67.5141C214.806 65.9175 215.282 64.518 216.05 63.3154C216.838 62.1128 217.833 61.1694 219.035 60.4852C220.259 59.7802 221.596 59.3863 223.047 59.3033C223.13 59.2826 223.213 59.2204 223.296 59.1167C223.4 58.9923 223.566 58.8886 223.794 58.8057C224.043 58.702 224.416 58.6709 224.913 58.7124C226.095 59.0441 227.174 59.6143 228.148 60.423C229.123 61.2316 229.931 62.2372 230.574 63.4398C231.237 64.6424 231.642 66.0005 231.787 67.5141ZM222.892 72.4592C223.555 72.4592 224.126 72.3037 224.602 71.9927C225.079 71.6817 225.463 71.2877 225.753 70.8108C226.044 70.3132 226.251 69.7948 226.375 69.2558C226.52 68.7167 226.593 68.2294 226.593 67.794C226.593 66.9024 226.448 66.2078 226.158 65.7102C225.867 65.2126 225.204 64.7668 224.167 64.3728C223.877 64.2484 223.68 64.0826 223.576 63.8752C223.472 63.6679 223.317 63.5538 223.11 63.5331C222.425 63.4502 221.845 63.6368 221.368 64.0929C220.891 64.5491 220.528 65.1607 220.279 65.9279C220.031 66.6951 219.906 67.5244 219.906 68.416C219.906 69.3076 220.072 70.054 220.404 70.6553C220.756 71.2566 221.161 71.7128 221.617 72.0238C222.094 72.3141 222.519 72.4592 222.892 72.4592ZM242.789 59.0234C244.634 58.8783 246.189 59.1893 247.454 59.9564C248.719 60.7029 249.683 61.75 250.346 63.0977C251.01 64.4247 251.352 65.8968 251.373 67.5141C251.414 69.0069 251.197 70.3339 250.72 71.4951C250.243 72.6354 249.59 73.61 248.76 74.4186C247.931 75.2065 246.998 75.8078 245.961 76.2225C244.945 76.6372 243.898 76.8445 242.82 76.8445C242.592 76.8445 242.291 76.8756 241.918 76.9378C241.565 76.9793 241.275 77.0933 241.047 77.2799C240.902 77.4251 240.798 77.5806 240.736 77.7464C240.695 77.9123 240.684 78.1093 240.705 78.3374C240.746 78.7106 240.829 78.9698 240.954 79.1149C241.099 79.2808 241.223 79.457 241.327 79.6436C241.099 79.8924 240.778 80.162 240.363 80.4523C239.948 80.7425 239.44 80.9706 238.839 81.1365C238.258 81.3024 237.564 81.3231 236.755 81.1987C236.257 81.1157 235.822 80.7944 235.449 80.2345C235.076 79.6747 234.879 78.9179 234.858 77.9641L234.765 63.502C234.765 62.3409 234.692 61.3975 234.547 60.6718C234.402 59.9253 234.329 59.5521 234.329 59.5521C234.599 59.4692 235.024 59.3966 235.604 59.3344C236.206 59.2722 236.828 59.3137 237.47 59.4588C237.719 59.521 238.03 59.5936 238.403 59.6765C238.797 59.7387 239.222 59.7387 239.679 59.6765C240.28 59.6143 240.881 59.5003 241.483 59.3344C242.084 59.1478 242.519 59.0441 242.789 59.0234ZM243.38 71.9616C244.043 71.9616 244.665 71.6195 245.246 70.9352C245.826 70.2303 246.117 69.2454 246.117 67.9806C246.117 67.1305 245.971 66.4152 245.681 65.8346C245.412 65.2333 245.07 64.7875 244.655 64.4972C244.24 64.1862 243.836 64.0307 243.442 64.0307C243.048 64.0307 242.644 64.0618 242.229 64.124C241.835 64.1862 241.483 64.4247 241.172 64.8394C240.881 65.254 240.695 65.9901 240.612 67.0476C240.508 68.416 240.591 69.4527 240.86 70.1577C241.151 70.8627 241.534 71.3395 242.011 71.5884C242.488 71.8372 242.944 71.9616 243.38 71.9616ZM257.342 58.4947C256.637 58.5154 256.005 58.3184 255.445 57.9038C254.906 57.4891 254.491 56.9811 254.201 56.3798C253.931 55.7578 253.828 55.1668 253.89 54.607C253.993 53.7569 254.377 53.1556 255.041 52.8031C255.704 52.4506 256.399 52.264 257.124 52.2433C258.161 52.2018 258.97 52.4714 259.55 53.0519C260.131 53.6325 260.421 54.296 260.421 55.0424C260.421 55.5401 260.307 56.048 260.079 56.5664C259.872 57.0848 259.54 57.5305 259.084 57.9038C258.628 58.2562 258.047 58.4532 257.342 58.4947ZM260.639 73.8588C260.66 74.232 260.774 74.5534 260.981 74.8229C261.209 75.0717 261.479 75.3102 261.79 75.5382C261.644 75.7248 261.458 75.9218 261.23 76.1292C261.002 76.3365 260.66 76.5335 260.203 76.7201C259.768 76.886 259.136 77.0207 258.306 77.1244C258.037 77.1451 257.695 77.114 257.28 77.0311C256.865 76.9689 256.45 76.7719 256.036 76.4402C255.642 76.0877 255.32 75.5382 255.072 74.7918C254.823 74.0246 254.719 72.9776 254.761 71.6506C254.781 71.4225 254.781 70.9767 254.761 70.3132C254.761 69.6497 254.75 68.8618 254.73 67.9495C254.73 67.0372 254.719 66.0938 254.698 65.1193C254.698 64.1448 254.688 63.2428 254.667 62.4135C254.667 61.5634 254.657 60.8791 254.636 60.3608C254.636 59.8217 254.636 59.5521 254.636 59.5521C254.823 59.5314 255.134 59.5107 255.569 59.4899C256.025 59.4485 256.523 59.4485 257.062 59.4899C257.601 59.5314 258.12 59.6351 258.617 59.8009C259.136 59.9461 259.571 60.1845 259.923 60.5163C260.297 60.848 260.514 61.2938 260.577 61.8536C260.68 62.6415 260.722 63.699 260.701 65.026C260.68 66.3322 260.649 67.7629 260.608 69.318C260.566 70.8523 260.577 72.3659 260.639 73.8588ZM281.444 71.3707C281.465 71.8268 281.496 72.3866 281.538 73.0501C281.6 73.7136 281.735 74.3564 281.942 74.9784C282.149 75.6004 282.481 76.0981 282.937 76.4713C282.419 76.8238 281.89 77.0726 281.351 77.2177C280.812 77.3836 280.283 77.4251 279.765 77.3421C279.62 77.3006 279.464 77.2488 279.298 77.1866C279.133 77.1451 278.904 77.0829 278.614 77C278.137 76.8549 277.577 76.8238 276.935 76.9067C276.292 76.9896 275.618 77.0933 274.913 77.2177C274.229 77.3628 273.555 77.4354 272.891 77.4354C271.813 77.4354 270.735 77.2488 269.657 76.8756C268.579 76.4816 267.604 75.8804 266.733 75.0717C265.863 74.2631 265.199 73.2367 264.743 71.9927C264.287 70.7486 264.152 69.2558 264.339 67.5141C264.463 66.3115 264.805 65.2126 265.365 64.2173C265.925 63.2014 266.609 62.3305 267.418 61.6048C268.247 60.8584 269.118 60.2882 270.03 59.8942C270.963 59.4796 271.865 59.2826 272.736 59.3033C273.399 59.3241 273.907 59.3448 274.26 59.3655C274.633 59.3863 275.11 59.4381 275.691 59.521C276.043 59.5625 276.489 59.5107 277.028 59.3655C277.567 59.2204 278.106 59.0649 278.645 58.899C279.205 58.7124 279.682 58.6191 280.076 58.6191C280.677 58.5984 281.102 58.6191 281.351 58.6813C281.6 58.7228 281.807 58.7642 281.973 58.8057C281.849 59.1789 281.745 59.7387 281.662 60.4852C281.579 61.2316 281.517 62.0817 281.475 63.0355C281.455 63.9685 281.434 64.943 281.413 65.959C281.393 66.975 281.382 67.9495 281.382 68.8825C281.403 69.8156 281.424 70.645 281.444 71.3707ZM269.75 68.5093C269.792 69.546 269.978 70.3547 270.31 70.9352C270.663 71.4951 271.077 71.889 271.554 72.1171C272.052 72.3452 272.529 72.4592 272.985 72.4592C273.897 72.4799 274.571 72.1275 275.006 71.4018C275.442 70.6761 275.649 69.6704 275.628 68.3849C275.628 68.0324 275.587 67.6178 275.504 67.1409C275.442 66.664 275.317 66.1975 275.131 65.7413C274.965 65.2851 274.726 64.9016 274.415 64.5906C274.125 64.2795 273.742 64.124 273.265 64.124C272.311 64.124 271.471 64.4765 270.746 65.1815C270.041 65.8864 269.709 66.9957 269.75 68.5093ZM292.196 69.0069C291.988 69.2765 291.75 69.5149 291.48 69.7223C291.232 69.9089 291.055 70.0955 290.952 70.2821C290.869 70.448 290.889 70.6242 291.014 70.8108C291.159 70.9767 291.491 71.1737 292.009 71.4018C292.776 72.1275 293.129 73.0294 293.067 74.1076C293.004 75.0613 292.61 75.8492 291.885 76.4713C291.18 77.0933 290.35 77.3732 289.397 77.311C288.443 77.2488 287.655 76.8652 287.033 76.1603C286.411 75.4346 286.131 74.5948 286.193 73.6411C286.235 73.102 286.369 72.5732 286.597 72.0549C286.826 71.5158 287.188 71.1737 287.686 71.0285C288.536 70.7797 289.003 70.3754 289.086 69.8156C289.127 69.5046 289.065 69.1417 288.899 68.727C288.754 68.2916 288.515 67.7629 288.184 67.1409C288.37 66.9335 288.484 66.5188 288.526 65.8968C288.588 65.254 288.598 64.4869 288.557 63.5953C288.515 62.7037 288.443 61.75 288.339 60.734C288.235 59.718 288.111 58.7124 287.966 57.7171C287.821 56.7219 287.665 55.82 287.499 55.0113C287.354 54.2027 287.209 53.5599 287.064 53.083C287.769 52.5232 288.515 52.2122 289.303 52.15C290.091 52.0671 290.827 52.1293 291.511 52.3366C292.196 52.5232 292.766 52.7409 293.222 52.9897C293.678 53.2385 293.927 53.3941 293.969 53.4563C294.28 53.7465 294.466 54.2338 294.528 54.918C294.611 55.5815 294.611 56.3694 294.528 57.2817C294.445 58.1111 294.331 59.0338 294.186 60.0498C294.041 61.045 293.875 62.0402 293.689 63.0355C293.502 64.0307 293.315 64.9638 293.129 65.8346C292.942 66.6847 292.766 67.4 292.6 67.9806C292.434 68.5404 292.299 68.8825 292.196 69.0069Z" fill="#A23D49"/>
<path fill-rule="evenodd" clip-rule="evenodd" d="M67.5543 48.6992C67.1554 47.2564 66.0281 46.1292 64.5854 45.7303L51.2647 42.0472L37.8871 38.5765C36.4382 38.2006 34.8983 38.6132 33.8315 39.6632L23.9815 49.3577L14.2869 59.2077C13.2369 60.2745 12.8243 61.8144 13.2002 63.2633L16.671 76.6409L20.354 89.9616C20.7529 91.4043 21.8802 92.5316 23.323 92.9305L36.6437 96.6135L50.0213 100.084C51.4702 100.46 53.01 100.048 54.0769 98.9976L63.9268 89.303L73.6214 79.4531C74.6714 78.3863 75.084 76.8464 74.7081 75.3975L71.2373 62.0199L67.5543 48.6992ZM35.1004 46.5389C34.6652 44.9959 33.3935 44.664 32.2599 45.7976L18.8252 59.2324C17.6915 60.366 17.1253 62.5358 17.5605 64.0788L22.3676 81.1233C22.8027 82.6663 24.0745 82.9981 25.2081 81.8645L38.6428 68.4298C39.7764 67.2962 40.3426 65.1264 39.9075 63.5834L35.1004 46.5389ZM44.0943 75.7059C45.2279 74.5723 47.3977 74.0061 48.9407 74.4413L65.9852 79.2483C67.5281 79.6835 67.86 80.9552 66.7264 82.0888L54.2039 94.6113C53.0703 95.7449 50.9005 96.3111 49.3576 95.8759L32.313 91.0689C30.7701 90.6337 30.4382 89.362 31.5718 88.2283L44.0943 75.7059ZM64.8908 52.2032C64.4978 50.649 62.9242 49.0514 61.376 48.6348L44.2748 44.0337C42.7267 43.6171 41.7903 44.5395 42.1833 46.0937L46.5248 63.2627C46.9179 64.8169 48.4915 66.4146 50.0396 66.8311L67.1408 71.4323C68.6889 71.8488 69.6253 70.9265 69.2323 69.3722L64.8908 52.2032Z" fill="#2F865C"/>
<ellipse cx="2.37085" cy="2.46762" rx="2.37085" ry="2.46762" transform="matrix(0.296542 0.95502 -0.707107 0.707107 28.679 59.7803)" fill="#2F865C"/>
<ellipse cx="2.37085" cy="2.46762" rx="2.37085" ry="2.46762" transform="matrix(0.95502 0.296542 -0.707107 0.707107 47.5771 78.3794)" fill="#2F865C"/>
<ellipse cx="2.37085" cy="2.46762" rx="2.37085" ry="2.46762" transform="matrix(0.95502 0.296542 -0.707107 0.707107 55.5833 81.1846)" fill="#2F865C"/>
<ellipse cx="2.37085" cy="2.46762" rx="2.37085" ry="2.46762" transform="matrix(0.95502 0.296542 -0.707107 0.707107 49.4929 87.2744)" fill="#2F865C"/>
<ellipse cx="2.37085" cy="2.46762" rx="2.37085" ry="2.46762" transform="matrix(0.95502 0.296542 -0.707107 0.707107 41.5557 84.4014)" fill="#2F865C"/>
<path d="M83.5529 38.172C80.7444 38.0373 74.8478 39.9753 73.7289 48.8044" stroke="#F6D62E" stroke-width="1.9352"/>
<path d="M10.8076 41.9226C11.7747 40.845 14.6186 39.3861 18.2581 42.1715" stroke="#F6D62E" stroke-width="1.9352"/>
<path d="M85.6751 32.5153C85.2263 32.3803 84.8669 32.8985 85.1507 33.2715L87.7727 36.7183C87.8996 36.8851 87.9047 37.1146 87.7853 37.2869L85.3174 40.8457C85.0504 41.2308 85.4322 41.7327 85.8746 41.5781L89.9629 40.1495C90.1608 40.0804 90.3807 40.1465 90.5076 40.3133L93.1296 43.7601C93.4134 44.1331 94.0087 43.9251 93.9983 43.4565L93.903 39.1268C93.8984 38.9173 94.0293 38.7286 94.2271 38.6594L98.3155 37.2308C98.7579 37.0762 98.744 36.4458 98.2952 36.3108L94.148 35.0635C93.9472 35.0032 93.8082 34.8204 93.8036 34.6109L93.7083 30.2812C93.698 29.8126 93.0941 29.631 92.827 30.0161L90.3592 33.575C90.2398 33.7472 90.023 33.8229 89.8223 33.7626L85.6751 32.5153Z" fill="#F6D62E"/>
<path d="M4.15243 38.8217C4.14994 38.6 4.43262 38.5046 4.56495 38.6825L5.94197 40.5338C6.00115 40.6133 6.10483 40.6457 6.19879 40.614L8.38493 39.8765C8.59502 39.8056 8.77307 40.045 8.64476 40.2258L7.30967 42.1075C7.25229 42.1883 7.25351 42.297 7.31269 42.3765L8.68971 44.2278C8.82204 44.4057 8.64941 44.649 8.43778 44.5828L6.23563 43.8945C6.14098 43.865 6.03806 43.8997 5.98068 43.9806L4.64558 45.8622C4.51728 46.0431 4.23254 45.9541 4.23005 45.7324L4.20414 43.4253C4.20302 43.3261 4.13819 43.239 4.04355 43.2094L1.84139 42.5211C1.62976 42.455 1.62641 42.1567 1.8365 42.0858L4.02264 41.3482C4.1166 41.3165 4.17946 41.2279 4.17834 41.1288L4.15243 38.8217Z" fill="#F6D62E"/>
<path d="M47.0643 32.462L7.80842 10.4669L12.8325 26.1478L45.2512 35.698L47.0643 32.462Z" fill="#D9D9D9" stroke="#D9D9D9" stroke-width="0.774079"/>
<path d="M47.2704 31.6904L8.18694 9.79187L24.1376 5.86315L49.0835 28.4544L47.2704 31.6904Z" fill="#797979" stroke="#797979" stroke-width="0.774079"/>
<path fill-rule="evenodd" clip-rule="evenodd" d="M57.109 39.0924C59.7215 39.4079 61.6826 40.9617 61.4892 42.5629C61.4622 42.7869 61.3944 42.9999 61.2907 43.1998C60.0108 48.6543 61.5782 53.7636 62.5681 56.9906C62.7303 57.5192 62.8769 57.9972 62.993 58.418L49.8403 58.5681C51.8338 56.196 51.9045 45.7872 51.6906 40.8793L52.1503 40.9502C52.6881 39.6213 54.7622 38.809 57.109 39.0924Z" fill="url(#paint0_linear_376_416)"/>
<ellipse cx="2.95329" cy="1.91337" rx="2.95329" ry="1.91337" transform="matrix(-0.620679 0.784065 0.784065 0.620679 53.3127 36.1987)" fill="#B4B6B4"/>
<ellipse cx="2.73936" cy="1.77477" rx="2.73936" ry="1.77477" transform="matrix(0.891808 0.452413 0.452413 -0.891808 55.8398 35.3965)" fill="#B4B6B4"/>
<path fill-rule="evenodd" clip-rule="evenodd" d="M45.6508 40.6692C44.145 39.7509 43.6688 37.7858 44.5871 36.2801L50.0791 27.2748C50.9974 25.769 52.9625 25.2928 54.4683 26.2111C55.974 27.1294 56.4502 29.0945 55.5319 30.6002L54.2466 32.7078C54.4107 32.7698 54.5714 32.8479 54.7266 32.9425L56.0721 33.7631C55.7323 34.7975 56.6019 36.1812 58.1221 36.9524C59.389 37.5951 60.7324 37.6219 61.5118 37.1005C62.6509 37.9778 62.97 39.5909 62.2042 40.8466C61.3833 42.1926 59.6267 42.6183 58.2806 41.7974L55.4713 40.0841C56.1014 38.795 56.0546 37.4706 55.2616 36.8429C54.3696 36.1368 52.8365 36.5519 51.6534 37.7528C51.5364 37.6748 51.427 37.5894 51.3254 37.4977L50.0399 39.6055C49.1216 41.1113 47.1565 41.5875 45.6508 40.6692Z" fill="#A23D49"/>
<defs>
<linearGradient id="paint0_linear_376_416" x1="58.8356" y1="49.4494" x2="55.8133" y2="59.3278" gradientUnits="userSpaceOnUse">
<stop offset="0.00609247" stop-color="#B4B6B4"/>
<stop offset="0.678568" stop-color="white" stop-opacity="0"/>
</linearGradient>
</defs>
</svg>
